<?xml version="1.0" encoding="UTF-8"?>
<svg id="Layer_1" data-name="Layer 1" xmlns="http://www.w3.org/2000/svg" viewBox="0 0 1106.55 190.27">
  <defs>
    <style>
      .cls-1 {
        fill: #a855f7;
      }

      .cls-2 {
        fill: #f1f1f1;
      }
    </style>
  </defs>
  <path class="cls-1" d="M171.87,3.21h51.75c1.36,0,2.47,1.09,2.47,2.43v22.34c0,1.34-1.11,2.43-2.47,2.43h-51.75c-1.36,0-2.47-1.09-2.47-2.43V5.64c0-1.34,1.11-2.43,2.47-2.43Z"/>
  <path class="cls-2" d="M18.75,5.68v22.45c0,1.28.99,2.35,2.26,2.41,23.83,1.17,42.79,20.64,42.79,44.48,0,20.68-14.25,38.05-33.58,43.07-1.53.4-3.03-.78-3.03-2.36v-33.81c0-1.34-1.09-2.43-2.43-2.43H2.43c-1.34,0-2.43,1.09-2.43,2.43v61.98c0,1.34,1.09,2.43,2.43,2.43h16.21c19.57,0,38.59-7.51,52.21-21.56,12.52-12.91,20.23-30.45,20.23-49.76C91.08,36.25,59.96,4.55,21.21,3.25c-1.36-.05-2.47,1.07-2.47,2.43Z"/>
  <path class="cls-2" d="M130.71,81.86v20.75c0,1.34,1.09,2.43,2.43,2.43h2.99c1.34,0,2.43,1.09,2.43,2.43v8.27c0,1.58-1.5,2.76-3.03,2.36-19.32-5.02-33.58-22.39-33.58-43.07,0-23.84,18.95-43.31,42.77-44.48,1.28-.06,2.28-1.13,2.28-2.42V5.68c0-1.39-1.16-2.47-2.55-2.42-24.73.85-46.34,14.1-58.73,33.66-.47.74-.48,1.68-.06,2.46,5.77,10.63,9.05,22.77,9.05,35.66s-3.24,24.93-9.05,35.66c-.42.77-.41,1.71.06,2.45,1.83,2.88,3.85,5.63,6.06,8.21,13.73,16.1,34.13,24.98,55.29,24.98h16.23c1.34,0,2.43-1.09,2.43-2.43v-62.05c0-1.34-1.09-2.43-2.43-2.43h-30.18c-1.34,0-2.43,1.09-2.43,2.43Z"/>
  <path class="cls-1" d="M264.73,33.61c-4.24,0-7.95-1.42-11.05-4.22-3.18-2.86-4.79-6.71-4.79-11.43,0-5.22,1.87-9.58,5.55-12.96,3.62-3.32,7.79-5.01,12.42-5.01s8.31,1.48,11.24,4.41c2.92,2.93,4.41,6.71,4.41,11.24,0,5.07-1.82,9.38-5.41,12.82-3.56,3.41-7.72,5.14-12.36,5.14Z"/>
  <path class="cls-2" d="M226.09,90.47c0-29.95-24.07-54.47-54.16-55.79-1.39-.06-2.55,1.04-2.55,2.43v23.33c0,1.27.98,2.32,2.25,2.41,14.72,1.11,26.31,13.05,26.31,27.61s-11.59,26.5-26.31,27.61c-1.27.1-2.25,1.14-2.25,2.41v23.33c0,1.39,1.16,2.49,2.55,2.43,30.09-1.32,54.16-25.84,54.16-55.79Z"/>
  <g>
    <g>
      <path class="cls-2" d="M284.66,144.75l-1.79-1.39,15.3-73.15c1.19-5.17-.66-8.88-5.56-11.13l-3.38-1.59.2-1.99,36.97-10.93,1.79,1.59-4.57,24.05c6.89-7.82,13.91-14.01,21.07-18.58,7.16-4.57,13.91-6.86,20.27-6.86,4.24,0,7.75,1.29,10.53,3.88,2.78,2.58,4.17,6.59,4.17,12.03,0,2.78-.27,5.66-.79,8.65-.53,2.98-1.19,6.06-1.99,9.24l-10.53,42.34c-.53,2.12-.93,3.88-1.19,5.27-.27,1.39-.4,2.62-.4,3.68,0,2.78,1.12,4.17,3.38,4.17,3.71,0,8.41-2.98,14.11-8.94l1.99,1.99c-3.31,4.9-7.69,9.34-13.12,13.32-5.44,3.97-11.46,5.96-18.09,5.96-4.37,0-7.75-1.03-10.14-3.08-2.39-2.05-3.58-4.93-3.58-8.65,0-2.78.33-5.66.99-8.65.66-2.98,1.39-6.06,2.19-9.24l7.75-31.01c1.06-4.24,1.92-8.02,2.58-11.33.66-3.31.99-6.36.99-9.14,0-2.39-.53-4.08-1.59-5.07-1.06-.99-2.52-1.49-4.37-1.49-3.18,0-6.93,1.39-11.23,4.17-4.31,2.78-9.04,7.16-14.21,13.12l-5.56,25.04c-1.46,7.03-2.85,14.05-4.17,21.07-1.33,7.03-2.65,14.11-3.97,21.27l-24.05,1.39Z"/>
      <path class="cls-2" d="M405.9,146.34c-4.11,0-7.52-1.09-10.24-3.28-2.72-2.19-4.08-5.4-4.08-9.64,0-2.65.26-5.53.8-8.65.53-3.11,1.12-6.46,1.79-10.04l13.71-62.81h-16.5l.6-2.39,7.16-.79c3.71-.4,6.96-1.32,9.74-2.78,2.78-1.46,5.43-3.51,7.95-6.16l19.08-19.28h2.98l-5.57,27.23h21.67l-.99,4.17h-21.67l-13.71,66.19c-.53,2.52-.93,4.67-1.19,6.46-.27,1.79-.4,3.28-.4,4.47,0,1.33.4,2.39,1.19,3.18.8.79,1.66,1.19,2.58,1.19,1.85,0,3.84-.76,5.96-2.29,2.12-1.52,4.77-3.81,7.95-6.86l2.39,1.99c-3.31,4.9-7.62,9.48-12.92,13.72-5.3,4.24-11.4,6.36-18.29,6.36Z"/>
      <path class="cls-2" d="M479.85,146.34c-9.94,0-18.02-3.24-24.25-9.74-6.23-6.49-9.34-15.7-9.34-27.63,0-8.48,1.46-16.56,4.37-24.25,2.91-7.68,6.99-14.54,12.22-20.57,5.23-6.03,11.3-10.76,18.19-14.21,6.89-3.44,14.38-5.17,22.46-5.17s14.74,1.89,19.18,5.66c4.44,3.78,6.66,8.78,6.66,15.01,0,5.17-2.42,10.27-7.25,15.3-4.84,5.04-11.63,9.58-20.37,13.62-8.75,4.04-19.02,7.12-30.81,9.24.13,9.14,2.12,15.84,5.96,20.08,3.84,4.24,9.14,6.36,15.9,6.36,5.7,0,10.93-1.56,15.7-4.67,4.77-3.11,8.81-6.79,12.12-11.03l1.99,1.39c-2.65,5.17-6.06,10.07-10.24,14.71-4.17,4.64-8.98,8.45-14.41,11.43-5.44,2.98-11.46,4.47-18.09,4.47ZM502.11,50.14c-3.05,0-6.33,1.33-9.84,3.98-3.51,2.65-6.83,6.26-9.94,10.83-3.11,4.57-5.7,9.81-7.75,15.7-2.06,5.9-3.28,12.16-3.68,18.78,14.57-3.98,24.95-9.21,31.11-15.7,6.16-6.49,9.24-13.85,9.24-22.06,0-3.98-.86-6.89-2.58-8.75-1.72-1.85-3.91-2.78-6.56-2.78Z"/>
      <path class="cls-2" d="M540.27,146.34c-4.37,0-7.85-1.13-10.44-3.38-2.58-2.25-3.88-5.5-3.88-9.74,0-2.39.26-5.27.79-8.65.53-3.38,1.32-7.72,2.39-13.02l11.33-54.86c1.06-5.03,1.95-9.61,2.68-13.72.73-4.11,1.56-8.75,2.48-13.91.93-5.3-1.19-8.88-6.36-10.73l-3.38-1.19.4-1.99,38.96-11.13,1.19,1.39-24.45,115.28c-.4,1.99-.73,3.75-.99,5.27-.27,1.53-.4,2.82-.4,3.88,0,2.92,1.26,4.37,3.78,4.37,3.31,0,8.15-2.98,14.51-8.94l1.99,1.59c-3.31,4.9-7.49,9.38-12.52,13.42-5.04,4.04-11.07,6.06-18.09,6.06Z"/>
      <path class="cls-2" d="M586.38,146.34c-4.37,0-7.85-1.13-10.43-3.38-2.58-2.25-3.88-5.5-3.88-9.74,0-2.39.26-5.27.8-8.65.53-3.38,1.32-7.72,2.39-13.02l11.33-54.86c1.06-5.03,1.95-9.61,2.68-13.72.73-4.11,1.56-8.75,2.48-13.91.93-5.3-1.19-8.88-6.36-10.73l-3.38-1.19.4-1.99,38.96-11.13,1.19,1.39-24.45,115.28c-.4,1.99-.73,3.75-.99,5.27-.27,1.53-.4,2.82-.4,3.88,0,2.92,1.26,4.37,3.78,4.37,3.31,0,8.15-2.98,14.51-8.94l1.99,1.59c-3.31,4.9-7.49,9.38-12.52,13.42-5.04,4.04-11.07,6.06-18.09,6.06Z"/>
      <path class="cls-2" d="M634.29,146.34c-4.11,0-7.49-1.06-10.14-3.18-2.65-2.12-3.98-5.23-3.98-9.34,0-2.39.26-5.23.8-8.55.53-3.31,1.12-6.62,1.79-9.94l9.34-44.72c1.19-5.43-.73-9.27-5.76-11.53l-3.18-1.59.2-2.19,37.37-10.73,1.99,1.79-15.5,71.95c-.53,2.39-.93,4.41-1.19,6.06-.27,1.66-.4,3.28-.4,4.87,0,2.92,1.32,4.37,3.98,4.37,1.99,0,3.98-.63,5.96-1.89,1.99-1.26,4.5-3.34,7.55-6.26l1.79,1.79c-3.31,4.9-7.52,9.31-12.62,13.22-5.1,3.91-11.1,5.86-17.99,5.86Z"/>
      <path class="cls-2" d="M688.75,190.27c-11.13,0-19.91-1.72-26.34-5.17-6.43-3.45-9.64-8.48-9.64-15.11,0-4.11,1.46-7.85,4.37-11.23,2.91-3.38,6.53-6.33,10.83-8.85,4.3-2.52,8.71-4.51,13.22-5.96-4.51-1.19-8.02-2.81-10.54-4.87-2.52-2.05-3.78-4.67-3.78-7.85s1.89-6.92,5.67-11.23c3.78-4.3,8.25-8.45,13.42-12.42-3.84-2.65-6.76-5.96-8.75-9.94-1.99-3.98-2.98-8.15-2.98-12.52,0-7.29,1.85-13.98,5.57-20.08,3.71-6.09,8.71-11,15.01-14.71,6.29-3.71,13.22-5.56,20.77-5.56,5.03,0,9.71.7,14.01,2.09,4.3,1.39,7.92,3.48,10.83,6.26,4.24-.66,8.31-1.69,12.22-3.08,3.91-1.39,7.65-3.15,11.23-5.27l1.39,1.39-1.99,10.34h-19.88c3.18,4.24,4.77,9.34,4.77,15.31,0,8.08-1.76,15.24-5.27,21.47-3.51,6.23-8.38,11.1-14.61,14.61-6.23,3.51-13.52,5.27-21.86,5.27-6.36,0-11.99-1.19-16.89-3.58l-2.98,4.97c-1.06,1.59-1.39,3.18-.99,4.77.4,1.59,1.79,2.58,4.17,2.98l32.6,6.56c11,2.25,18.71,5.17,23.16,8.75,4.44,3.58,6.66,8.48,6.66,14.71,0,7.42-2.75,13.98-8.25,19.68-5.5,5.7-13.02,10.17-22.56,13.42-9.54,3.25-20.41,4.87-32.6,4.87ZM672.84,163.04c0,6.62,2.39,11.83,7.16,15.6,4.77,3.78,11.2,5.66,19.28,5.66,10.2,0,18.22-1.72,24.05-5.17,5.83-3.45,8.75-8.42,8.75-14.91,0-3.84-1.69-6.89-5.07-9.14-3.38-2.26-9.31-4.17-17.79-5.76l-23.26-4.37c-.66-.13-1.26-.27-1.79-.4-3.45,2.12-6.2,4.74-8.25,7.85-2.06,3.11-3.08,6.66-3.08,10.63ZM710.01,109.17c4.37,0,8.12-2.52,11.23-7.55,3.11-5.03,4.67-13.78,4.67-26.24,0-8.48-1.13-15.04-3.38-19.68-2.26-4.64-5.1-6.96-8.55-6.96-5.3.13-9.34,3.21-12.12,9.24-2.78,6.03-4.17,14.08-4.17,24.15,0,7.29.96,13.65,2.88,19.08,1.92,5.44,5.07,8.08,9.44,7.95Z"/>
      <path class="cls-2" d="M793.69,146.34c-9.94,0-18.02-3.24-24.25-9.74-6.23-6.49-9.34-15.7-9.34-27.63,0-8.48,1.46-16.56,4.37-24.25,2.91-7.68,6.99-14.54,12.22-20.57,5.23-6.03,11.3-10.76,18.19-14.21,6.89-3.44,14.38-5.17,22.46-5.17s14.74,1.89,19.18,5.66c4.44,3.78,6.66,8.78,6.66,15.01,0,5.17-2.42,10.27-7.25,15.3-4.84,5.04-11.63,9.58-20.37,13.62-8.75,4.04-19.02,7.12-30.81,9.24.13,9.14,2.12,15.84,5.96,20.08,3.84,4.24,9.14,6.36,15.9,6.36,5.7,0,10.93-1.56,15.7-4.67,4.77-3.11,8.81-6.79,12.12-11.03l1.99,1.39c-2.65,5.17-6.06,10.07-10.24,14.71-4.17,4.64-8.98,8.45-14.41,11.43-5.44,2.98-11.46,4.47-18.09,4.47ZM815.95,50.14c-3.05,0-6.33,1.33-9.84,3.98-3.51,2.65-6.83,6.26-9.94,10.83-3.12,4.57-5.7,9.81-7.75,15.7-2.06,5.9-3.28,12.16-3.68,18.78,14.58-3.98,24.95-9.21,31.11-15.7,6.16-6.49,9.24-13.85,9.24-22.06,0-3.98-.86-6.89-2.58-8.75-1.72-1.85-3.91-2.78-6.56-2.78Z"/>
      <path class="cls-2" d="M841.59,144.75l-1.79-1.39,15.31-73.15c1.19-5.17-.66-8.88-5.57-11.13l-3.38-1.59.2-1.99,36.97-10.93,1.79,1.59-4.57,24.05c6.89-7.82,13.91-14.01,21.07-18.58,7.16-4.57,13.91-6.86,20.27-6.86,4.24,0,7.75,1.29,10.53,3.88s4.17,6.59,4.17,12.03c0,2.78-.27,5.66-.79,8.65-.53,2.98-1.19,6.06-1.99,9.24l-10.54,42.34c-.53,2.12-.93,3.88-1.19,5.27-.27,1.39-.4,2.62-.4,3.68,0,2.78,1.12,4.17,3.38,4.17,3.71,0,8.41-2.98,14.11-8.94l1.99,1.99c-3.31,4.9-7.69,9.34-13.12,13.32-5.44,3.97-11.46,5.96-18.09,5.96-4.37,0-7.75-1.03-10.14-3.08-2.39-2.05-3.58-4.93-3.58-8.65,0-2.78.33-5.66.99-8.65.66-2.98,1.39-6.06,2.19-9.24l7.75-31.01c1.06-4.24,1.92-8.02,2.58-11.33.66-3.31.99-6.36.99-9.14,0-2.39-.53-4.08-1.59-5.07-1.06-.99-2.52-1.49-4.37-1.49-3.18,0-6.93,1.39-11.23,4.17-4.31,2.78-9.04,7.16-14.21,13.12l-5.57,25.04c-1.46,7.03-2.85,14.05-4.17,21.07-1.33,7.03-2.65,14.11-3.98,21.27l-24.05,1.39Z"/>
      <path class="cls-2" d="M978.15,146.34c-9.81,0-17.82-3.31-24.05-9.94-6.23-6.62-9.34-15.9-9.34-27.83,0-8.48,1.46-16.53,4.37-24.15,2.91-7.62,6.99-14.41,12.22-20.37,5.23-5.96,11.26-10.67,18.09-14.11,6.82-3.44,14.14-5.17,21.96-5.17,4.64,0,8.98.73,13.02,2.19,4.04,1.46,7.29,3.51,9.74,6.16,2.45,2.65,3.61,5.76,3.48,9.34-.13,3.58-1.26,6.4-3.38,8.45-2.12,2.06-4.9,3.08-8.35,3.08-3.71,0-6.69-1.12-8.94-3.38-2.26-2.25-4.04-4.84-5.37-7.75l-1.19-3.38c-1.86-4.37-3.48-6.99-4.87-7.85-1.39-.86-3.75.1-7.06,2.88-3.58,3.05-6.93,7.16-10.04,12.32-3.11,5.17-5.6,10.87-7.45,17.09-1.86,6.23-2.78,12.59-2.78,19.08,0,9.94,2.15,17.26,6.46,21.96,4.3,4.71,10.1,7.06,17.39,7.06,4.77,0,9.47-1.52,14.11-4.57,4.64-3.05,8.94-7.29,12.92-12.72l2.78,1.99c-2.78,5.17-6.36,10.01-10.73,14.51-4.37,4.51-9.38,8.15-15.01,10.93-5.63,2.78-11.63,4.17-17.99,4.17Z"/>
      <path class="cls-2" d="M1057.06,146.34c-9.94,0-18.02-3.24-24.25-9.74-6.23-6.49-9.34-15.7-9.34-27.63,0-8.48,1.46-16.56,4.37-24.25,2.91-7.68,6.99-14.54,12.22-20.57,5.23-6.03,11.3-10.76,18.19-14.21,6.89-3.44,14.38-5.17,22.46-5.17s14.74,1.89,19.18,5.66c4.44,3.78,6.66,8.78,6.66,15.01,0,5.17-2.42,10.27-7.25,15.3-4.84,5.04-11.63,9.58-20.37,13.62-8.75,4.04-19.02,7.12-30.81,9.24.13,9.14,2.12,15.84,5.96,20.08,3.84,4.24,9.14,6.36,15.9,6.36,5.7,0,10.93-1.56,15.7-4.67,4.77-3.11,8.81-6.79,12.12-11.03l1.99,1.39c-2.65,5.17-6.06,10.07-10.24,14.71-4.17,4.64-8.98,8.45-14.41,11.43-5.43,2.98-11.46,4.47-18.09,4.47ZM1079.32,50.14c-3.05,0-6.33,1.33-9.84,3.98-3.51,2.65-6.83,6.26-9.94,10.83-3.11,4.57-5.7,9.81-7.75,15.7-2.06,5.9-3.28,12.16-3.68,18.78,14.58-3.98,24.95-9.21,31.11-15.7,6.16-6.49,9.24-13.85,9.24-22.06,0-3.98-.86-6.89-2.58-8.75-1.72-1.85-3.91-2.78-6.56-2.78Z"/>
    </g>
    <path class="cls-1" d="M652.8,33.61c-4.24,0-7.95-1.42-11.05-4.22-3.18-2.86-4.79-6.71-4.79-11.43,0-5.22,1.87-9.58,5.55-12.96,3.62-3.32,7.79-5.01,12.42-5.01s8.31,1.48,11.24,4.41c2.92,2.93,4.41,6.71,4.41,11.24,0,5.07-1.82,9.38-5.41,12.82-3.56,3.41-7.72,5.14-12.36,5.14Z"/>
  </g>
  <path class="cls-2" d="M250.21,146.34c-4.11,0-7.49-1.06-10.14-3.18-2.65-2.12-3.98-5.23-3.98-9.34,0-2.39.26-5.23.8-8.55.53-3.31,1.12-6.62,1.79-9.94l9.34-44.72c1.19-5.43-.73-9.27-5.76-11.53l-3.18-1.59.2-2.19,37.37-10.73,1.99,1.79-15.5,71.95c-.53,2.39-.93,4.41-1.19,6.06-.27,1.66-.4,3.28-.4,4.87,0,2.92,1.32,4.37,3.98,4.37,1.99,0,3.98-.63,5.96-1.89,1.99-1.26,4.5-3.34,7.55-6.26l1.79,1.79c-3.31,4.9-7.52,9.31-12.62,13.22-5.1,3.91-11.1,5.86-17.99,5.86Z"/>
</svg>
