<?xml version="1.0" encoding="UTF-8" standalone="no"?>
<!-- Created with Inkscape (http://www.inkscape.org/) -->

<svg
   xmlns:dc="http://purl.org/dc/elements/1.1/"
   xmlns:cc="http://creativecommons.org/ns#"
   xmlns:rdf="http://www.w3.org/1999/02/22-rdf-syntax-ns#"
   xmlns:svg="http://www.w3.org/2000/svg"
   xmlns="http://www.w3.org/2000/svg"
   xmlns:sodipodi="http://sodipodi.sourceforge.net/DTD/sodipodi-0.dtd"
   xmlns:inkscape="http://www.inkscape.org/namespaces/inkscape"
   width="240.41412"
   height="52.849869"
   viewBox="0 0 63.609568 13.983194"
   version="1.1"
   id="svg5677"
   inkscape:version="0.92.0 r15299"
   sodipodi:docname="titan intl.svg">
  <defs
     id="defs5671">
    <clipPath
       id="clipPath4948"
       clipPathUnits="userSpaceOnUse">
      <path
         inkscape:connector-curvature="0"
         id="path4946"
         d="M 377.896,698.062 H 556.707 V 736.2 H 377.896 Z" />
    </clipPath>
  </defs>
  <sodipodi:namedview
     id="base"
     pagecolor="#ffffff"
     bordercolor="#666666"
     borderopacity="1.0"
     inkscape:pageopacity="0.0"
     inkscape:pageshadow="2"
     inkscape:zoom="3.3806531"
     inkscape:cx="120.70388"
     inkscape:cy="-0.50321252"
     inkscape:document-units="mm"
     inkscape:current-layer="layer1"
     showgrid="false"
     inkscape:window-width="1280"
     inkscape:window-height="744"
     inkscape:window-x="-4"
     inkscape:window-y="-4"
     inkscape:window-maximized="1"
     fit-margin-top="0"
     fit-margin-left="0"
     fit-margin-right="0"
     fit-margin-bottom="0"
     units="px" />
  <metadata
     id="metadata5674">
    <rdf:RDF>
      <cc:Work
         rdf:about="">
        <dc:format>image/svg+xml</dc:format>
        <dc:type
           rdf:resource="http://purl.org/dc/dcmitype/StillImage" />
        <dc:title></dc:title>
      </cc:Work>
    </rdf:RDF>
  </metadata>
  <g
     inkscape:label="Layer 1"
     inkscape:groupmode="layer"
     id="layer1"
     transform="translate(19.066987,-141.57716)">
    <path
       inkscape:connector-curvature="0"
       id="path4952"
       style="fill:#ffffff;fill-opacity:1;fill-rule:nonzero;stroke:none;stroke-width:0.35277778"
       d="m -6.0663184,146.09906 c -0.9433278,-2.30399 -3.1757055,-3.8929 -5.9824056,-3.8929 -2.697339,0 -4.900789,1.53493 -5.843058,3.76766 l 3.377494,1.29964 c 0.08502,-0.19615 0.298097,-0.7874 0.549628,-1.17616 0.470605,-0.47555 0.698852,-0.65935 0.695325,1.16981 l 0.109361,1.05657 1.11125,0.40075 1.293283,-0.38241 0.06562,-0.89076 c 0.01164,-0.37712 0.09631,-0.76059 0.09843,-1.10102 0.0025,-0.53834 0.06315,-0.72073 0.437091,-0.34008 0.138642,0.12418 0.3443124,0.31609 0.5707952,0.60713 0.1125361,0.16157 0.2091973,0.36865 0.3072695,0.65229 z" />
    <path
       inkscape:connector-curvature="0"
       id="path4956"
       style="fill:none;stroke:#ffffff;stroke-width:0.72883886;stroke-linecap:butt;stroke-linejoin:miter;stroke-miterlimit:4;stroke-dasharray:none;stroke-opacity:1"
       d="m -6.0663184,146.09906 c -0.9433278,-2.30399 -3.1757055,-3.8929 -5.9824056,-3.8929 -2.697339,0 -4.900789,1.53493 -5.843058,3.76766 l 3.377494,1.29964 c 0.08502,-0.19615 0.298097,-0.7874 0.549628,-1.17616 0.470605,-0.47555 0.698852,-0.65935 0.695325,1.16981 l 0.109361,1.05657 1.11125,0.40075 1.293283,-0.38241 0.06562,-0.89076 c 0.01164,-0.37712 0.09631,-0.76059 0.09843,-1.10102 0.0025,-0.53834 0.06315,-0.72073 0.437091,-0.34008 0.138642,0.12418 0.3443124,0.31609 0.5707952,0.60713 0.1125361,0.16157 0.2091973,0.36865 0.3072695,0.65229 z" />
    <path
       inkscape:connector-curvature="0"
       id="path4960"
       style="fill:#ffffff;fill-opacity:1;fill-rule:nonzero;stroke:#ffffff;stroke-width:0.72883886;stroke-linecap:butt;stroke-linejoin:miter;stroke-miterlimit:4;stroke-dasharray:none;stroke-opacity:1"
       d="m -12.04883,154.90912 c 3.5796364,0 6.3570558,-2.83845 6.3891586,-6.36658 0.00953,-1.09114 -0.2180167,-1.89689 -0.2180167,-1.89689 l -3.3291638,1.17405 c 0.072672,0.4131 0.075142,0.94862 0.048331,1.31163 -0.1943806,1.25095 -0.4981222,1.76106 -0.7528277,2.08879 -0.4730754,0.60819 -0.6801564,0.29175 -0.6801564,-0.097 0,-0.38876 -0.145697,-2.19816 -0.145697,-2.19816 l -1.311628,0.37853 -1.141589,-0.35419 c -0.08502,0.69215 -0.07302,2.06446 -0.07302,2.06446 -0.04833,0.53446 -0.197203,0.51611 -0.197203,0.51611 -0.34925,0 -0.833614,-0.55986 -1.056569,-1.21144 -0.347486,-1.01494 -0.322086,-1.81433 -0.142169,-2.50084 l -3.442406,-1.26577 c -0.3302,0.80857 -0.336197,1.75084 -0.336197,1.99073 0,3.52848 2.860675,6.3888 6.389158,6.3888 3.5281313,0 6.389159,-2.86032 6.389159,-6.3888" />
    <path
       inkscape:connector-curvature="0"
       id="path4964"
       style="fill:#ffffff;fill-opacity:1;fill-rule:nonzero;stroke:none;stroke-width:0.35277778"
       d="m -0.7540849,145.50466 c -1.2523611,0 -1.5070666,0.19509 -1.9568583,0.82515 -0.6653389,0.91546 -0.8611305,1.50071 -1.3892388,1.50071 -0.2741084,0 -0.3718278,-0.21025 -0.3718278,-0.39017 0,-0.60007 0.841375,-2.58092 1.2132027,-3.00108 0.117475,-0.13511 0.2345973,-0.23989 0.4106334,-0.23989 0.7637638,0 0.3524249,0.66005 1.1743972,0.66005 h 5.8705748 c 1.0960806,0 1.0569222,-0.66005 1.6439444,-0.66005 0.1957917,0 0.3129139,0.06 0.3129139,0.22507 0,0.25506 -0.7630583,2.8508 -1.1542888,3.25614 -0.058914,0.06 -0.1957917,0.11995 -0.3132667,0.11995 -0.4109861,0 -0.5284611,-0.18027 -0.5284611,-0.78035 0,-0.3302 0.078317,-0.67521 0.078317,-0.94544 0,-0.52493 -0.5870223,-0.5401 -1.3698361,-0.55492 -0.7044972,1.92052 -2.73967219,7.42738 -2.73967219,7.62247 0,0.69038 0.99836109,0.4953 0.99836109,0.88547 0,0.25506 -0.21554721,0.28505 -0.76341109,0.28505 -0.99800831,0 -2.01577221,-0.06 -3.01342771,-0.06 -0.8808861,0 -1.5268222,0.06 -2.1332472,0.06 -0.2151944,0 -0.4501444,-0.09 -0.4501444,-0.26988 0,-0.63041 1.1938,-0.03 1.6047861,-1.05057 z" />
    <path
       inkscape:connector-curvature="0"
       id="path4968"
       style="fill:none;stroke:#ffffff;stroke-width:0.72883886;stroke-linecap:butt;stroke-linejoin:miter;stroke-miterlimit:4;stroke-dasharray:none;stroke-opacity:1"
       d="m -0.7540849,145.50466 c -1.2523611,0 -1.5070666,0.19509 -1.9568583,0.82515 -0.6653389,0.91546 -0.8611305,1.50071 -1.3892388,1.50071 -0.2741084,0 -0.3718278,-0.21025 -0.3718278,-0.39017 0,-0.60007 0.841375,-2.58092 1.2132027,-3.00108 0.117475,-0.13511 0.2345973,-0.23989 0.4106334,-0.23989 0.7637638,0 0.3524249,0.66005 1.1743972,0.66005 h 5.8705748 c 1.0960806,0 1.0569222,-0.66005 1.6439444,-0.66005 0.1957917,0 0.3129139,0.06 0.3129139,0.22507 0,0.25506 -0.7630583,2.8508 -1.1542888,3.25614 -0.058914,0.06 -0.1957917,0.11995 -0.3132667,0.11995 -0.4109861,0 -0.5284611,-0.18027 -0.5284611,-0.78035 0,-0.3302 0.078317,-0.67521 0.078317,-0.94544 0,-0.52493 -0.5870223,-0.5401 -1.3698361,-0.55492 -0.7044972,1.92052 -2.73967219,7.42738 -2.73967219,7.62247 0,0.69038 0.99836109,0.4953 0.99836109,0.88547 0,0.25506 -0.21554721,0.28505 -0.76341109,0.28505 -0.99800831,0 -2.01577221,-0.06 -3.01342771,-0.06 -0.8808861,0 -1.5268222,0.06 -2.1332472,0.06 -0.2151944,0 -0.4501444,-0.09 -0.4501444,-0.26988 0,-0.63041 1.1938,-0.03 1.6047861,-1.05057 z" />
    <path
       inkscape:connector-curvature="0"
       id="path4972"
       style="fill:#ffffff;fill-opacity:1;fill-rule:nonzero;stroke:none;stroke-width:0.35277778"
       d="m 6.7599757,147.36546 c 0.2741083,-0.78034 0.5087055,-1.2005 0.5087055,-1.57551 0,-0.58525 -0.8413749,-0.18026 -0.8413749,-0.6604 0,-0.31503 0.3912305,-0.3302 0.7238999,-0.3302 0.8611306,0 1.7028583,0.06 2.5636361,0.06 0.6261797,0 1.2523607,-0.06 1.8591387,-0.06 0.39123,0 0.626533,0.06 0.626533,0.31539 0,0.375 -0.959203,0.03 -1.291872,0.96026 l -1.8005775,5.16184 c -0.4106333,1.15535 -0.6064249,1.60549 -0.6064249,1.93569 0,0.48014 0.899936,0.36019 0.899936,0.76518 0,0.37536 -0.6847416,0.37536 -1.2915194,0.37536 -0.6455833,0 -1.2915194,-0.0603 -1.9371027,-0.0603 -0.8025694,0 -1.68275,0.0603 -2.1720527,0.0603 -0.23495,0 -0.5482167,-0.0452 -0.5482167,-0.24025 0,-0.5401 0.9592028,-0.25505 1.2329583,-0.99024 z" />
    <path
       inkscape:connector-curvature="0"
       id="path4976"
       style="fill:none;stroke:#ffffff;stroke-width:0.72883886;stroke-linecap:butt;stroke-linejoin:miter;stroke-miterlimit:4;stroke-dasharray:none;stroke-opacity:1"
       d="m 6.7599757,147.36546 c 0.2741083,-0.78034 0.5087055,-1.2005 0.5087055,-1.57551 0,-0.58525 -0.8413749,-0.18026 -0.8413749,-0.6604 0,-0.31503 0.3912305,-0.3302 0.7238999,-0.3302 0.8611306,0 1.7028583,0.06 2.5636361,0.06 0.6261797,0 1.2523607,-0.06 1.8591387,-0.06 0.39123,0 0.626533,0.06 0.626533,0.31539 0,0.375 -0.959203,0.03 -1.291872,0.96026 l -1.8005775,5.16184 c -0.4106333,1.15535 -0.6064249,1.60549 -0.6064249,1.93569 0,0.48014 0.899936,0.36019 0.899936,0.76518 0,0.37536 -0.6847416,0.37536 -1.2915194,0.37536 -0.6455833,0 -1.2915194,-0.0603 -1.9371027,-0.0603 -0.8025694,0 -1.68275,0.0603 -2.1720527,0.0603 -0.23495,0 -0.5482167,-0.0452 -0.5482167,-0.24025 0,-0.5401 0.9592028,-0.25505 1.2329583,-0.99024 z" />
    <path
       inkscape:connector-curvature="0"
       id="path4980"
       style="fill:#ffffff;fill-opacity:1;fill-rule:nonzero;stroke:none;stroke-width:0.35277778"
       d="m 15.54132,145.50466 c -1.252361,0 -1.506714,0.19509 -1.956858,0.82515 -0.664986,0.91546 -0.860778,1.50071 -1.389239,1.50071 -0.274108,0 -0.371828,-0.21025 -0.371828,-0.39017 0,-0.60007 0.841375,-2.58092 1.213203,-3.00108 0.117475,-0.13511 0.23495,-0.23989 0.410633,-0.23989 0.763411,0 0.352425,0.66005 1.174397,0.66005 h 5.870575 c 1.096081,0 1.056922,-0.66005 1.644297,-0.66005 0.195087,0 0.312914,0.06 0.312914,0.22507 0,0.25506 -0.763411,2.8508 -1.154641,3.25614 -0.05856,0.06 -0.195792,0.11995 -0.312914,0.11995 -0.410986,0 -0.528461,-0.18027 -0.528461,-0.78035 0,-0.3302 0.07796,-0.67521 0.07796,-0.94544 0,-0.52493 -0.587023,-0.5401 -1.369484,-0.55492 -0.70485,1.92052 -2.740025,7.42738 -2.740025,7.62247 0,0.69038 0.998361,0.4953 0.998361,0.88547 0,0.25506 -0.215547,0.28505 -0.763411,0.28505 -0.998008,0 -2.015772,-0.06 -3.013427,-0.06 -0.880534,0 -1.52647,0.06 -2.132895,0.06 -0.215547,0 -0.450497,-0.09 -0.450497,-0.26988 0,-0.63041 1.1938,-0.03 1.604786,-1.05057 z" />
    <path
       inkscape:connector-curvature="0"
       id="path4984"
       style="fill:none;stroke:#ffffff;stroke-width:0.72883886;stroke-linecap:butt;stroke-linejoin:miter;stroke-miterlimit:4;stroke-dasharray:none;stroke-opacity:1"
       d="m 15.54132,145.50466 c -1.252361,0 -1.506714,0.19509 -1.956858,0.82515 -0.664986,0.91546 -0.860778,1.50071 -1.389239,1.50071 -0.274108,0 -0.371828,-0.21025 -0.371828,-0.39017 0,-0.60007 0.841375,-2.58092 1.213203,-3.00108 0.117475,-0.13511 0.23495,-0.23989 0.410633,-0.23989 0.763411,0 0.352425,0.66005 1.174397,0.66005 h 5.870575 c 1.096081,0 1.056922,-0.66005 1.644297,-0.66005 0.195087,0 0.312914,0.06 0.312914,0.22507 0,0.25506 -0.763411,2.8508 -1.154641,3.25614 -0.05856,0.06 -0.195792,0.11995 -0.312914,0.11995 -0.410986,0 -0.528461,-0.18027 -0.528461,-0.78035 0,-0.3302 0.07796,-0.67521 0.07796,-0.94544 0,-0.52493 -0.587023,-0.5401 -1.369484,-0.55492 -0.70485,1.92052 -2.740025,7.42738 -2.740025,7.62247 0,0.69038 0.998361,0.4953 0.998361,0.88547 0,0.25506 -0.215547,0.28505 -0.763411,0.28505 -0.998008,0 -2.015772,-0.06 -3.013427,-0.06 -0.880534,0 -1.52647,0.06 -2.132895,0.06 -0.215547,0 -0.450497,-0.09 -0.450497,-0.26988 0,-0.63041 1.1938,-0.03 1.604786,-1.05057 z" />
    <path
       inkscape:connector-curvature="0"
       id="path4988"
       style="fill:#ffffff;fill-opacity:1;fill-rule:nonzero;stroke:none;stroke-width:0.35277778"
       d="m 25.238863,146.99025 h -0.03916 l -2.387248,3.31611 h 2.504723 z m 0.117475,4.06647 h -2.817989 c -0.371828,0 -0.450144,0.10513 -0.802569,0.6604 -0.587022,0.9151 -0.743303,1.23014 -0.743303,1.54552 0,0.48013 1.095728,0.31503 1.095728,0.7052 0,0.25506 -0.254,0.34502 -0.56762,0.34502 -0.664986,0 -1.154289,-0.06 -1.643591,-0.06 -0.469548,0 -0.95885,0.06 -1.408995,0.06 -0.313266,0 -0.430389,-0.09 -0.410986,-0.26988 -0.0194,-0.51047 0.998008,-0.10512 1.741664,-1.09572 l 6.066367,-8.08779 c 0.09772,-0.10513 0.176388,-0.14993 0.352425,-0.14993 h 2.074333 c 0.234597,0 0.293511,0.03 0.312914,0.25506 l 0.587022,8.29804 c 0.03951,0.48013 0.939447,0.31503 0.939447,0.69038 0,0.2847 -0.13723,0.35984 -0.587022,0.35984 -0.23495,0 -0.782814,-0.06 -2.289528,-0.06 -1.526469,0 -2.074686,0.06 -2.817989,0.06 -0.430741,0 -0.567266,-0.13512 -0.567266,-0.29986 0,-0.61525 1.486958,-0.0452 1.486958,-1.03576 z" />
    <path
       inkscape:connector-curvature="0"
       id="path4992"
       style="fill:none;stroke:#ffffff;stroke-width:0.72883886;stroke-linecap:butt;stroke-linejoin:miter;stroke-miterlimit:4;stroke-dasharray:none;stroke-opacity:1"
       d="m 25.238863,146.99025 h -0.03916 l -2.387248,3.31611 h 2.504723 z m 0.117475,4.06647 h -2.817989 c -0.371828,0 -0.450144,0.10513 -0.802569,0.6604 -0.587022,0.9151 -0.743303,1.23014 -0.743303,1.54552 0,0.48013 1.095728,0.31503 1.095728,0.7052 0,0.25506 -0.254,0.34502 -0.56762,0.34502 -0.664986,0 -1.154289,-0.06 -1.643591,-0.06 -0.469548,0 -0.95885,0.06 -1.408995,0.06 -0.313266,0 -0.430389,-0.09 -0.410986,-0.26988 -0.0194,-0.51047 0.998008,-0.10512 1.741664,-1.09572 l 6.066367,-8.08779 c 0.09772,-0.10513 0.176388,-0.14993 0.352425,-0.14993 h 2.074333 c 0.234597,0 0.293511,0.03 0.312914,0.25506 l 0.587022,8.29804 c 0.03951,0.48013 0.939447,0.31503 0.939447,0.69038 0,0.2847 -0.13723,0.35984 -0.587022,0.35984 -0.23495,0 -0.782814,-0.06 -2.289528,-0.06 -1.526469,0 -2.074686,0.06 -2.817989,0.06 -0.430741,0 -0.567266,-0.13512 -0.567266,-0.29986 0,-0.61525 1.486958,-0.0452 1.486958,-1.03576 z" />
    <path
       inkscape:connector-curvature="0"
       id="path4996"
       style="fill:#ffffff;fill-opacity:1;fill-rule:nonzero;stroke:none;stroke-width:0.35277778"
       d="m 39.784667,153.99779 c -0.09772,0.30021 -0.156986,0.31503 -1.017764,0.31503 -0.704497,0 -0.763058,-0.03 -0.919692,-0.375 l -3.150658,-6.67738 h -0.03916 c -0.508706,1.54552 -1.839383,5.31178 -1.839383,5.86705 0,0.7052 1.056569,0.45014 1.056569,0.90029 0,0.1651 -0.09737,0.28504 -0.430389,0.28504 -0.371828,0 -0.802217,-0.06 -1.291519,-0.06 -0.450145,0 -0.841728,0.06 -1.252714,0.06 -0.293158,0 -0.391231,-0.09 -0.391231,-0.31503 0,-0.42016 0.978606,-0.19509 1.154642,-0.69039 2.191808,-6.07695 2.602794,-7.02239 2.602794,-7.35259 0,-0.64523 -0.95885,-0.43498 -0.95885,-0.82515 0,-0.21025 0.117123,-0.3302 0.664986,-0.3302 0.547864,0 1.076678,0.06 1.624542,0.06 0.450145,0 0.880533,-0.06 1.330678,-0.06 0.254,0 0.352425,0.11995 0.469547,0.34502 l 2.661708,5.3721 h 0.03881 c 1.135239,-3.1362 1.506714,-4.30671 1.506714,-4.66655 0,-0.51046 -1.05657,-0.3302 -1.05657,-0.73554 0,-0.22507 0.195792,-0.31503 0.508706,-0.31503 0.371828,0 0.744008,0.06 1.213555,0.06 0.371828,0 0.782461,-0.06 1.193448,-0.06 0.293511,0 0.450144,0.0751 0.450144,0.28505 0,0.46531 -1.076325,0.11994 -1.369836,0.94544 z" />
    <path
       inkscape:connector-curvature="0"
       id="path5000"
       style="fill:none;stroke:#ffffff;stroke-width:0.72883886;stroke-linecap:butt;stroke-linejoin:miter;stroke-miterlimit:4;stroke-dasharray:none;stroke-opacity:1"
       d="m 39.784667,153.99779 c -0.09772,0.30021 -0.156986,0.31503 -1.017764,0.31503 -0.704497,0 -0.763058,-0.03 -0.919692,-0.375 l -3.150658,-6.67738 h -0.03916 c -0.508706,1.54552 -1.839383,5.31178 -1.839383,5.86705 0,0.7052 1.056569,0.45014 1.056569,0.90029 0,0.1651 -0.09737,0.28504 -0.430389,0.28504 -0.371828,0 -0.802217,-0.06 -1.291519,-0.06 -0.450145,0 -0.841728,0.06 -1.252714,0.06 -0.293158,0 -0.391231,-0.09 -0.391231,-0.31503 0,-0.42016 0.978606,-0.19509 1.154642,-0.69039 2.191808,-6.07695 2.602794,-7.02239 2.602794,-7.35259 0,-0.64523 -0.95885,-0.43498 -0.95885,-0.82515 0,-0.21025 0.117123,-0.3302 0.664986,-0.3302 0.547864,0 1.076678,0.06 1.624542,0.06 0.450145,0 0.880533,-0.06 1.330678,-0.06 0.254,0 0.352425,0.11995 0.469547,0.34502 l 2.661708,5.3721 h 0.03881 c 1.135239,-3.1362 1.506714,-4.30671 1.506714,-4.66655 0,-0.51046 -1.05657,-0.3302 -1.05657,-0.73554 0,-0.22507 0.195792,-0.31503 0.508706,-0.31503 0.371828,0 0.744008,0.06 1.213555,0.06 0.371828,0 0.782461,-0.06 1.193448,-0.06 0.293511,0 0.450144,0.0751 0.450144,0.28505 0,0.46531 -1.076325,0.11994 -1.369836,0.94544 z" />
    <path
       inkscape:connector-curvature="0"
       id="path5004"
       style="fill:#ffffff;fill-opacity:1;fill-rule:nonzero;stroke:none;stroke-width:0.35277778"
       d="m 41.898758,153.72999 h 0.08467 c 0.09595,0 0.1778,-0.0349 0.1778,-0.12524 0,-0.0642 -0.04692,-0.12841 -0.1778,-0.12841 -0.03845,0 -0.06421,0.003 -0.08467,0.006 z m 0,0.40499 h -0.116417 v -0.73131 c 0.06103,-0.009 0.119592,-0.0176 0.206728,-0.0176 0.110772,0 0.183797,0.0233 0.227542,0.0554 0.04339,0.0321 0.06703,0.0815 0.06703,0.15134 0,0.0963 -0.06421,0.15452 -0.142875,0.17815 v 0.006 c 0.0642,0.0116 0.107597,0.0702 0.122413,0.1778 0.01729,0.11359 0.03493,0.15734 0.04657,0.18062 h -0.122414 c -0.01764,-0.0233 -0.03493,-0.0903 -0.04974,-0.18627 -0.01729,-0.0935 -0.06385,-0.12841 -0.157339,-0.12841 h -0.08149 z m 0.122414,-0.93557 c -0.288572,0 -0.524228,0.24801 -0.524228,0.55386 0,0.31186 0.235656,0.55669 0.527403,0.55669 0.291394,0.003 0.524228,-0.24483 0.524228,-0.55386 0,-0.30868 -0.232834,-0.55669 -0.524228,-0.55669 z m 0.0032,-0.10195 c 0.358069,0 0.643819,0.29139 0.643819,0.65581 0,0.37007 -0.28575,0.65864 -0.646994,0.65864 -0.358422,0 -0.649817,-0.28857 -0.649817,-0.65864 0,-0.36442 0.291395,-0.65581 0.649817,-0.65581 z" />
    <path
       inkscape:connector-curvature="0"
       id="path5008"
       style="fill:none;stroke:#ffffff;stroke-width:0.72883886;stroke-linecap:butt;stroke-linejoin:miter;stroke-miterlimit:10;stroke-dasharray:none;stroke-opacity:1"
       d="m 41.898758,153.72999 h 0.08467 c 0.09595,0 0.1778,-0.0349 0.1778,-0.12524 0,-0.0642 -0.04692,-0.12841 -0.1778,-0.12841 -0.03845,0 -0.06421,0.003 -0.08467,0.006 z m 0,0.40499 h -0.116417 v -0.73131 c 0.06103,-0.009 0.119592,-0.0176 0.206728,-0.0176 0.110772,0 0.183797,0.0233 0.227542,0.0554 0.04339,0.0321 0.06703,0.0815 0.06703,0.15134 0,0.0963 -0.06421,0.15452 -0.142875,0.17815 v 0.006 c 0.0642,0.0116 0.107597,0.0702 0.122413,0.1778 0.01729,0.11359 0.03493,0.15734 0.04657,0.18062 h -0.122414 c -0.01764,-0.0233 -0.03493,-0.0903 -0.04974,-0.18627 -0.01729,-0.0935 -0.06385,-0.12841 -0.157339,-0.12841 h -0.08149 z m 0.122414,-0.93557 c -0.288572,0 -0.524228,0.24801 -0.524228,0.55386 0,0.31186 0.235656,0.55669 0.527403,0.55669 0.291394,0.003 0.524228,-0.24483 0.524228,-0.55386 0,-0.30868 -0.232834,-0.55669 -0.524228,-0.55669 z m 0.0032,-0.10195 c 0.358069,0 0.643819,0.29139 0.643819,0.65581 0,0.37007 -0.28575,0.65864 -0.646994,0.65864 -0.358422,0 -0.649817,-0.28857 -0.649817,-0.65864 0,-0.36442 0.291395,-0.65581 0.649817,-0.65581 z" />
    <path
       inkscape:connector-curvature="0"
       id="path5012"
       style="fill:#00538e;fill-opacity:1;fill-rule:nonzero;stroke:none;stroke-width:0.35277778"
       d="m -6.0663184,146.09906 c -0.9433278,-2.30399 -3.1757055,-3.8929 -5.9824056,-3.8929 -2.697339,0 -4.900789,1.53493 -5.843058,3.76766 l 3.377494,1.29964 c 0.08502,-0.19615 0.298097,-0.7874 0.549628,-1.17616 0.470605,-0.47555 0.698852,-0.65935 0.695325,1.16981 l 0.109361,1.05657 1.11125,0.40075 1.293283,-0.38241 0.06562,-0.89076 c 0.01164,-0.37712 0.09631,-0.76059 0.09843,-1.10102 0.0025,-0.53834 0.06315,-0.72073 0.437091,-0.34008 0.138642,0.12418 0.3443124,0.31609 0.5707952,0.60713 0.1125361,0.16157 0.2091973,0.36865 0.3072695,0.65229 z" />
    <path
       inkscape:connector-curvature="0"
       id="path5016"
       style="fill:none;stroke:#00548e;stroke-width:0.14569722;stroke-linecap:butt;stroke-linejoin:miter;stroke-miterlimit:4;stroke-dasharray:none;stroke-opacity:1"
       d="m -6.0663184,146.09906 c -0.9433278,-2.30399 -3.1757055,-3.8929 -5.9824056,-3.8929 -2.697339,0 -4.900789,1.53493 -5.843058,3.76766 l 3.377494,1.29964 c 0.08502,-0.19615 0.298097,-0.7874 0.549628,-1.17616 0.470605,-0.47555 0.698852,-0.65935 0.695325,1.16981 l 0.109361,1.05657 1.11125,0.40075 1.293283,-0.38241 0.06562,-0.89076 c 0.01164,-0.37712 0.09631,-0.76059 0.09843,-1.10102 0.0025,-0.53834 0.06315,-0.72073 0.437091,-0.34008 0.138642,0.12418 0.3443124,0.31609 0.5707952,0.60713 0.1125361,0.16157 0.2091973,0.36865 0.3072695,0.65229 z" />
    <path
       inkscape:connector-curvature="0"
       id="path5020"
       style="fill:#ef3e42;fill-opacity:1;fill-rule:nonzero;stroke:none;stroke-width:0.35277778"
       d="m -12.04883,154.90912 c 3.5796364,0 6.3570558,-2.83845 6.3891586,-6.36658 0.00953,-1.09114 -0.2180167,-1.89689 -0.2180167,-1.89689 l -3.3291638,1.17405 c 0.072672,0.4131 0.075142,0.94862 0.048331,1.31163 -0.1943806,1.25095 -0.4981222,1.76106 -0.7528277,2.08879 -0.4730754,0.60819 -0.6801564,0.29175 -0.6801564,-0.097 0,-0.38876 -0.145697,-2.19816 -0.145697,-2.19816 l -1.311628,0.37853 -1.141589,-0.35419 c -0.08502,0.69215 -0.07302,2.06446 -0.07302,2.06446 -0.04833,0.53446 -0.197203,0.51611 -0.197203,0.51611 -0.34925,0 -0.833614,-0.55986 -1.056569,-1.21144 -0.347486,-1.01494 -0.322086,-1.81433 -0.142169,-2.50084 l -3.442406,-1.26577 c -0.3302,0.80857 -0.336197,1.75084 -0.336197,1.99073 0,3.52848 2.860675,6.3888 6.389158,6.3888 3.5281313,0 6.389159,-2.86032 6.389159,-6.3888" />
    <path
       inkscape:connector-curvature="0"
       id="path5024"
       style="fill:none;stroke:#ef3e42;stroke-width:0.14569722;stroke-linecap:butt;stroke-linejoin:miter;stroke-miterlimit:4;stroke-dasharray:none;stroke-opacity:1"
       d="m -12.04883,154.90912 c 3.5796364,0 6.3570558,-2.83845 6.3891586,-6.36658 0.00953,-1.09114 -0.2180167,-1.89689 -0.2180167,-1.89689 l -3.3291638,1.17405 c 0.072672,0.4131 0.075142,0.94862 0.048331,1.31163 -0.1943806,1.25095 -0.4981222,1.76106 -0.7528277,2.08879 -0.4730754,0.60819 -0.6801564,0.29175 -0.6801564,-0.097 0,-0.38876 -0.145697,-2.19816 -0.145697,-2.19816 l -1.311628,0.37853 -1.141589,-0.35419 c -0.08502,0.69215 -0.07302,2.06446 -0.07302,2.06446 -0.04833,0.53446 -0.197203,0.51611 -0.197203,0.51611 -0.34925,0 -0.833614,-0.55986 -1.056569,-1.21144 -0.347486,-1.01494 -0.322086,-1.81433 -0.142169,-2.50084 l -3.442406,-1.26577 c -0.3302,0.80857 -0.336197,1.75084 -0.336197,1.99073 0,3.52848 2.860675,6.3888 6.389158,6.3888 3.5281313,0 6.389159,-2.86032 6.389159,-6.3888" />
    <path
       inkscape:connector-curvature="0"
       id="path5028"
       style="fill:#00538e;fill-opacity:1;fill-rule:nonzero;stroke:none;stroke-width:0.35277778"
       d="m -0.7540849,145.50466 c -1.2523611,0 -1.5070666,0.19509 -1.9568583,0.82515 -0.6653389,0.91546 -0.8611305,1.50071 -1.3892388,1.50071 -0.2741084,0 -0.3718278,-0.21025 -0.3718278,-0.39017 0,-0.60007 0.841375,-2.58092 1.2132027,-3.00108 0.117475,-0.13511 0.2345973,-0.23989 0.4106334,-0.23989 0.7637638,0 0.3524249,0.66005 1.1743972,0.66005 h 5.8705748 c 1.0960806,0 1.0569222,-0.66005 1.6439444,-0.66005 0.1957917,0 0.3129139,0.06 0.3129139,0.22507 0,0.25506 -0.7630583,2.8508 -1.1542888,3.25614 -0.058914,0.06 -0.1957917,0.11995 -0.3132667,0.11995 -0.4109861,0 -0.5284611,-0.18027 -0.5284611,-0.78035 0,-0.3302 0.078317,-0.67521 0.078317,-0.94544 0,-0.52493 -0.5870223,-0.5401 -1.3698361,-0.55492 -0.7044972,1.92052 -2.73967219,7.42738 -2.73967219,7.62247 0,0.69038 0.99836109,0.4953 0.99836109,0.88547 0,0.25506 -0.21554721,0.28505 -0.76341109,0.28505 -0.99800831,0 -2.01577221,-0.06 -3.01342771,-0.06 -0.8808861,0 -1.5268222,0.06 -2.1332472,0.06 -0.2151944,0 -0.4501444,-0.09 -0.4501444,-0.26988 0,-0.63041 1.1938,-0.03 1.6047861,-1.05057 z" />
    <path
       inkscape:connector-curvature="0"
       id="path5032"
       style="fill:none;stroke:#00548e;stroke-width:0.14569722;stroke-linecap:butt;stroke-linejoin:miter;stroke-miterlimit:4;stroke-dasharray:none;stroke-opacity:1"
       d="m -0.7540849,145.50466 c -1.2523611,0 -1.5070666,0.19509 -1.9568583,0.82515 -0.6653389,0.91546 -0.8611305,1.50071 -1.3892388,1.50071 -0.2741084,0 -0.3718278,-0.21025 -0.3718278,-0.39017 0,-0.60007 0.841375,-2.58092 1.2132027,-3.00108 0.117475,-0.13511 0.2345973,-0.23989 0.4106334,-0.23989 0.7637638,0 0.3524249,0.66005 1.1743972,0.66005 h 5.8705748 c 1.0960806,0 1.0569222,-0.66005 1.6439444,-0.66005 0.1957917,0 0.3129139,0.06 0.3129139,0.22507 0,0.25506 -0.7630583,2.8508 -1.1542888,3.25614 -0.058914,0.06 -0.1957917,0.11995 -0.3132667,0.11995 -0.4109861,0 -0.5284611,-0.18027 -0.5284611,-0.78035 0,-0.3302 0.078317,-0.67521 0.078317,-0.94544 0,-0.52493 -0.5870223,-0.5401 -1.3698361,-0.55492 -0.7044972,1.92052 -2.73967219,7.42738 -2.73967219,7.62247 0,0.69038 0.99836109,0.4953 0.99836109,0.88547 0,0.25506 -0.21554721,0.28505 -0.76341109,0.28505 -0.99800831,0 -2.01577221,-0.06 -3.01342771,-0.06 -0.8808861,0 -1.5268222,0.06 -2.1332472,0.06 -0.2151944,0 -0.4501444,-0.09 -0.4501444,-0.26988 0,-0.63041 1.1938,-0.03 1.6047861,-1.05057 z" />
    <path
       inkscape:connector-curvature="0"
       id="path5036"
       style="fill:#00538e;fill-opacity:1;fill-rule:nonzero;stroke:none;stroke-width:0.35277778"
       d="m 6.7599757,147.36546 c 0.2741083,-0.78034 0.5087055,-1.2005 0.5087055,-1.57551 0,-0.58525 -0.8413749,-0.18026 -0.8413749,-0.6604 0,-0.31503 0.3912305,-0.3302 0.7238999,-0.3302 0.8611306,0 1.7028583,0.06 2.5636361,0.06 0.6261797,0 1.2523607,-0.06 1.8591387,-0.06 0.39123,0 0.626533,0.06 0.626533,0.31539 0,0.375 -0.959203,0.03 -1.291872,0.96026 l -1.8005775,5.16184 c -0.4106333,1.15535 -0.6064249,1.60549 -0.6064249,1.93569 0,0.48014 0.899936,0.36019 0.899936,0.76518 0,0.37536 -0.6847416,0.37536 -1.2915194,0.37536 -0.6455833,0 -1.2915194,-0.0603 -1.9371027,-0.0603 -0.8025694,0 -1.68275,0.0603 -2.1720527,0.0603 -0.23495,0 -0.5482167,-0.0452 -0.5482167,-0.24025 0,-0.5401 0.9592028,-0.25505 1.2329583,-0.99024 z" />
    <path
       inkscape:connector-curvature="0"
       id="path5040"
       style="fill:none;stroke:#00548e;stroke-width:0.14569722;stroke-linecap:butt;stroke-linejoin:miter;stroke-miterlimit:4;stroke-dasharray:none;stroke-opacity:1"
       d="m 6.7599757,147.36546 c 0.2741083,-0.78034 0.5087055,-1.2005 0.5087055,-1.57551 0,-0.58525 -0.8413749,-0.18026 -0.8413749,-0.6604 0,-0.31503 0.3912305,-0.3302 0.7238999,-0.3302 0.8611306,0 1.7028583,0.06 2.5636361,0.06 0.6261797,0 1.2523607,-0.06 1.8591387,-0.06 0.39123,0 0.626533,0.06 0.626533,0.31539 0,0.375 -0.959203,0.03 -1.291872,0.96026 l -1.8005775,5.16184 c -0.4106333,1.15535 -0.6064249,1.60549 -0.6064249,1.93569 0,0.48014 0.899936,0.36019 0.899936,0.76518 0,0.37536 -0.6847416,0.37536 -1.2915194,0.37536 -0.6455833,0 -1.2915194,-0.0603 -1.9371027,-0.0603 -0.8025694,0 -1.68275,0.0603 -2.1720527,0.0603 -0.23495,0 -0.5482167,-0.0452 -0.5482167,-0.24025 0,-0.5401 0.9592028,-0.25505 1.2329583,-0.99024 z" />
    <path
       inkscape:connector-curvature="0"
       id="path5044"
       style="fill:#00538e;fill-opacity:1;fill-rule:nonzero;stroke:none;stroke-width:0.35277778"
       d="m 15.54132,145.50466 c -1.252361,0 -1.506714,0.19509 -1.956858,0.82515 -0.664986,0.91546 -0.860778,1.50071 -1.389239,1.50071 -0.274108,0 -0.371828,-0.21025 -0.371828,-0.39017 0,-0.60007 0.841375,-2.58092 1.213203,-3.00108 0.117475,-0.13511 0.23495,-0.23989 0.410633,-0.23989 0.763411,0 0.352425,0.66005 1.174397,0.66005 h 5.870575 c 1.096081,0 1.056922,-0.66005 1.644297,-0.66005 0.195087,0 0.312914,0.06 0.312914,0.22507 0,0.25506 -0.763411,2.8508 -1.154641,3.25614 -0.05856,0.06 -0.195792,0.11995 -0.312914,0.11995 -0.410986,0 -0.528461,-0.18027 -0.528461,-0.78035 0,-0.3302 0.07796,-0.67521 0.07796,-0.94544 0,-0.52493 -0.587023,-0.5401 -1.369484,-0.55492 -0.70485,1.92052 -2.740025,7.42738 -2.740025,7.62247 0,0.69038 0.998361,0.4953 0.998361,0.88547 0,0.25506 -0.215547,0.28505 -0.763411,0.28505 -0.998008,0 -2.015772,-0.06 -3.013427,-0.06 -0.880534,0 -1.52647,0.06 -2.132895,0.06 -0.215547,0 -0.450497,-0.09 -0.450497,-0.26988 0,-0.63041 1.1938,-0.03 1.604786,-1.05057 z" />
    <path
       inkscape:connector-curvature="0"
       id="path5048"
       style="fill:none;stroke:#00548e;stroke-width:0.14569722;stroke-linecap:butt;stroke-linejoin:miter;stroke-miterlimit:4;stroke-dasharray:none;stroke-opacity:1"
       d="m 15.54132,145.50466 c -1.252361,0 -1.506714,0.19509 -1.956858,0.82515 -0.664986,0.91546 -0.860778,1.50071 -1.389239,1.50071 -0.274108,0 -0.371828,-0.21025 -0.371828,-0.39017 0,-0.60007 0.841375,-2.58092 1.213203,-3.00108 0.117475,-0.13511 0.23495,-0.23989 0.410633,-0.23989 0.763411,0 0.352425,0.66005 1.174397,0.66005 h 5.870575 c 1.096081,0 1.056922,-0.66005 1.644297,-0.66005 0.195087,0 0.312914,0.06 0.312914,0.22507 0,0.25506 -0.763411,2.8508 -1.154641,3.25614 -0.05856,0.06 -0.195792,0.11995 -0.312914,0.11995 -0.410986,0 -0.528461,-0.18027 -0.528461,-0.78035 0,-0.3302 0.07796,-0.67521 0.07796,-0.94544 0,-0.52493 -0.587023,-0.5401 -1.369484,-0.55492 -0.70485,1.92052 -2.740025,7.42738 -2.740025,7.62247 0,0.69038 0.998361,0.4953 0.998361,0.88547 0,0.25506 -0.215547,0.28505 -0.763411,0.28505 -0.998008,0 -2.015772,-0.06 -3.013427,-0.06 -0.880534,0 -1.52647,0.06 -2.132895,0.06 -0.215547,0 -0.450497,-0.09 -0.450497,-0.26988 0,-0.63041 1.1938,-0.03 1.604786,-1.05057 z" />
    <path
       inkscape:connector-curvature="0"
       id="path5052"
       style="fill:#00538e;fill-opacity:1;fill-rule:nonzero;stroke:none;stroke-width:0.35277778"
       d="m 25.238863,146.99025 h -0.03916 l -2.387248,3.31611 h 2.504723 z m 0.117475,4.06647 h -2.817989 c -0.371828,0 -0.450144,0.10513 -0.802569,0.6604 -0.587022,0.9151 -0.743303,1.23014 -0.743303,1.54552 0,0.48013 1.095728,0.31503 1.095728,0.7052 0,0.25506 -0.254,0.34502 -0.56762,0.34502 -0.664986,0 -1.154289,-0.06 -1.643591,-0.06 -0.469548,0 -0.95885,0.06 -1.408995,0.06 -0.313266,0 -0.430389,-0.09 -0.410986,-0.26988 -0.0194,-0.51047 0.998008,-0.10512 1.741664,-1.09572 l 6.066367,-8.08779 c 0.09772,-0.10513 0.176388,-0.14993 0.352425,-0.14993 h 2.074333 c 0.234597,0 0.293511,0.03 0.312914,0.25506 l 0.587022,8.29804 c 0.03951,0.48013 0.939447,0.31503 0.939447,0.69038 0,0.2847 -0.13723,0.35984 -0.587022,0.35984 -0.23495,0 -0.782814,-0.06 -2.289528,-0.06 -1.526469,0 -2.074686,0.06 -2.817989,0.06 -0.430741,0 -0.567266,-0.13512 -0.567266,-0.29986 0,-0.61525 1.486958,-0.0452 1.486958,-1.03576 z" />
    <path
       inkscape:connector-curvature="0"
       id="path5056"
       style="fill:none;stroke:#00548e;stroke-width:0.14569722;stroke-linecap:butt;stroke-linejoin:miter;stroke-miterlimit:4;stroke-dasharray:none;stroke-opacity:1"
       d="m 25.238863,146.99025 h -0.03916 l -2.387248,3.31611 h 2.504723 z m 0.117475,4.06647 h -2.817989 c -0.371828,0 -0.450144,0.10513 -0.802569,0.6604 -0.587022,0.9151 -0.743303,1.23014 -0.743303,1.54552 0,0.48013 1.095728,0.31503 1.095728,0.7052 0,0.25506 -0.254,0.34502 -0.56762,0.34502 -0.664986,0 -1.154289,-0.06 -1.643591,-0.06 -0.469548,0 -0.95885,0.06 -1.408995,0.06 -0.313266,0 -0.430389,-0.09 -0.410986,-0.26988 -0.0194,-0.51047 0.998008,-0.10512 1.741664,-1.09572 l 6.066367,-8.08779 c 0.09772,-0.10513 0.176388,-0.14993 0.352425,-0.14993 h 2.074333 c 0.234597,0 0.293511,0.03 0.312914,0.25506 l 0.587022,8.29804 c 0.03951,0.48013 0.939447,0.31503 0.939447,0.69038 0,0.2847 -0.13723,0.35984 -0.587022,0.35984 -0.23495,0 -0.782814,-0.06 -2.289528,-0.06 -1.526469,0 -2.074686,0.06 -2.817989,0.06 -0.430741,0 -0.567266,-0.13512 -0.567266,-0.29986 0,-0.61525 1.486958,-0.0452 1.486958,-1.03576 z" />
    <path
       inkscape:connector-curvature="0"
       id="path5060"
       style="fill:#00538e;fill-opacity:1;fill-rule:nonzero;stroke:none;stroke-width:0.35277778"
       d="m 39.784667,153.99779 c -0.09772,0.30021 -0.156986,0.31503 -1.017764,0.31503 -0.704497,0 -0.763058,-0.03 -0.919692,-0.375 l -3.150658,-6.67738 h -0.03916 c -0.508706,1.54552 -1.839383,5.31178 -1.839383,5.86705 0,0.7052 1.056569,0.45014 1.056569,0.90029 0,0.1651 -0.09737,0.28504 -0.430389,0.28504 -0.371828,0 -0.802217,-0.06 -1.291519,-0.06 -0.450145,0 -0.841728,0.06 -1.252714,0.06 -0.293158,0 -0.391231,-0.09 -0.391231,-0.31503 0,-0.42016 0.978606,-0.19509 1.154642,-0.69039 2.191808,-6.07695 2.602794,-7.02239 2.602794,-7.35259 0,-0.64523 -0.95885,-0.43498 -0.95885,-0.82515 0,-0.21025 0.117123,-0.3302 0.664986,-0.3302 0.547864,0 1.076678,0.06 1.624542,0.06 0.450145,0 0.880533,-0.06 1.330678,-0.06 0.254,0 0.352425,0.11995 0.469547,0.34502 l 2.661708,5.3721 h 0.03881 c 1.135239,-3.1362 1.506714,-4.30671 1.506714,-4.66655 0,-0.51046 -1.05657,-0.3302 -1.05657,-0.73554 0,-0.22507 0.195792,-0.31503 0.508706,-0.31503 0.371828,0 0.744008,0.06 1.213555,0.06 0.371828,0 0.782461,-0.06 1.193448,-0.06 0.293511,0 0.450144,0.0751 0.450144,0.28505 0,0.46531 -1.076325,0.11994 -1.369836,0.94544 z" />
    <path
       inkscape:connector-curvature="0"
       id="path5064"
       style="fill:none;stroke:#00548e;stroke-width:0.14569722;stroke-linecap:butt;stroke-linejoin:miter;stroke-miterlimit:4;stroke-dasharray:none;stroke-opacity:1"
       d="m 39.784667,153.99779 c -0.09772,0.30021 -0.156986,0.31503 -1.017764,0.31503 -0.704497,0 -0.763058,-0.03 -0.919692,-0.375 l -3.150658,-6.67738 h -0.03916 c -0.508706,1.54552 -1.839383,5.31178 -1.839383,5.86705 0,0.7052 1.056569,0.45014 1.056569,0.90029 0,0.1651 -0.09737,0.28504 -0.430389,0.28504 -0.371828,0 -0.802217,-0.06 -1.291519,-0.06 -0.450145,0 -0.841728,0.06 -1.252714,0.06 -0.293158,0 -0.391231,-0.09 -0.391231,-0.31503 0,-0.42016 0.978606,-0.19509 1.154642,-0.69039 2.191808,-6.07695 2.602794,-7.02239 2.602794,-7.35259 0,-0.64523 -0.95885,-0.43498 -0.95885,-0.82515 0,-0.21025 0.117123,-0.3302 0.664986,-0.3302 0.547864,0 1.076678,0.06 1.624542,0.06 0.450145,0 0.880533,-0.06 1.330678,-0.06 0.254,0 0.352425,0.11995 0.469547,0.34502 l 2.661708,5.3721 h 0.03881 c 1.135239,-3.1362 1.506714,-4.30671 1.506714,-4.66655 0,-0.51046 -1.05657,-0.3302 -1.05657,-0.73554 0,-0.22507 0.195792,-0.31503 0.508706,-0.31503 0.371828,0 0.744008,0.06 1.213555,0.06 0.371828,0 0.782461,-0.06 1.193448,-0.06 0.293511,0 0.450144,0.0751 0.450144,0.28505 0,0.46531 -1.076325,0.11994 -1.369836,0.94544 z" />
    <path
       inkscape:connector-curvature="0"
       id="path5068"
       style="fill:#00538e;fill-opacity:1;fill-rule:nonzero;stroke:none;stroke-width:0.35277778"
       d="m 41.898758,153.72999 h 0.08467 c 0.09595,0 0.1778,-0.0349 0.1778,-0.12524 0,-0.0642 -0.04692,-0.12841 -0.1778,-0.12841 -0.03845,0 -0.06421,0.003 -0.08467,0.006 z m 0,0.40499 h -0.116417 v -0.73131 c 0.06103,-0.009 0.119592,-0.0176 0.206728,-0.0176 0.110772,0 0.183797,0.0233 0.227542,0.0554 0.04339,0.0321 0.06703,0.0815 0.06703,0.15134 0,0.0963 -0.06421,0.15452 -0.142875,0.17815 v 0.006 c 0.0642,0.0116 0.107597,0.0702 0.122413,0.1778 0.01729,0.11359 0.03493,0.15734 0.04657,0.18062 h -0.122414 c -0.01764,-0.0233 -0.03493,-0.0903 -0.04974,-0.18627 -0.01729,-0.0935 -0.06385,-0.12841 -0.157339,-0.12841 h -0.08149 z m 0.122414,-0.93557 c -0.288572,0 -0.524228,0.24801 -0.524228,0.55386 0,0.31186 0.235656,0.55669 0.527403,0.55669 0.291394,0.003 0.524228,-0.24483 0.524228,-0.55386 0,-0.30868 -0.232834,-0.55669 -0.524228,-0.55669 z m 0.0032,-0.10195 c 0.358069,0 0.643819,0.29139 0.643819,0.65581 0,0.37007 -0.28575,0.65864 -0.646994,0.65864 -0.358422,0 -0.649817,-0.28857 -0.649817,-0.65864 0,-0.36442 0.291395,-0.65581 0.649817,-0.65581 z" />
  </g>
</svg>
